<?xml version="1.0" encoding="utf-8"?>
<!-- Generator: Adobe Illustrator 23.0.2, SVG Export Plug-In . SVG Version: 6.00 Build 0)  -->
<svg version="1.1" id="圖層_1" xmlns="http://www.w3.org/2000/svg" xmlns:xlink="http://www.w3.org/1999/xlink" x="0px" y="0px"
	 viewBox="0 0 102.9 102.9" style="enable-background:new 0 0 102.9 102.9;" xml:space="preserve">
<style type="text/css">
	.st0{fill:#232323;}
</style>
<path class="st0" d="M51.2,53.6c1.8,0.8,3.3,1,4.8,1V44.1c-1.3-1.5-1.8-3-2-4.8v-0.5c0-0.8,0.3-1.8,0.5-2.8c0.3-1,1-2.2,2-4
	c1-1.8,1.8-3.2,2-4.7c-1.3-0.3-2.3-0.5-3.5-0.5c-1.8,0-3.5,0.3-5,1c0,1.3,0.3,2,0.8,2.8c0.5,0.7,1,1,1.5,1s0.7,0,1-0.3l-0.3-0.3
	c0-0.3,0.3-0.5,0.5-0.5s0.5,0.3,0.5,0.5c0,0.3-0.3,0.5-0.5,0.7c-0.3,0.2-0.8,0.3-1.3,0.3c-0.7,0-1.5-0.3-2-1
	c-0.5-0.7-0.8-1.5-0.8-2.5c-2.8,1.3-4.5,3.5-5.5,6.3c-0.5,1-0.5,2.2-0.5,3.5v0.3c0,2.8,1,5,3,6.8l0.3,0.3l-0.3,0.3c-0.3,0-1-0.8-2-2
	s-1.5-3-1.5-5.3v-0.3c0-1.3,0.3-2.5,0.5-3.5c1.3-3,3.3-5,6-6.5c0-0.7,0.3-1.3,0.5-1.8c-1.5-0.3-2.2-1.3-2.8-3
	c-5.3,2.3-8.5,5.7-10,10.3c-0.3,0.7-0.3,1.8-0.3,3c0,4.3,1,7.8,2.8,10.2l0.3,0.2c0.8,0.8,1.5,1.5,2.5,2.3v0.2
	c-1.3-0.7-2-1.5-2.8-2.3l-0.5-0.5c-2-2.8-3-6-3-10.5c0-1,0.3-2,0.5-3c1.3-5,4.8-8.7,10.3-11.2c0-1.5,0.7-2.8,1.5-3.8
	c1-1,2.3-1.5,3.5-1.5c2.5,0,4.3,1.3,5.5,4c5.3,0.7,9.8,2.8,13,6s5,6.8,5,10.8c0,3.5-1,6.8-3,9.3c-2,2.7-4.8,4.8-8.3,6.3
	c1-0.2,2-0.2,3.3-0.2c3.8,0,7,1.3,10,4c3,2.7,4.3,5.8,4.3,9.3c0,3.5-1.3,6.3-4,8.3c-2.7,2-6,3.3-10.5,3.3c-2.3,0-4.5-0.5-6.5-1.3
	s-3.5-1.8-4.5-3c-1-1.3-1.5-1.8-1.5-1.8l0.3-0.2l0.3,0.2c3,3.8,6.8,5.5,11.8,5.5c4,0,7.3-1,9.8-3c2.5-2,3.8-4.8,3.8-8.2
	c0-3.3-1.3-6.3-4-8.8c-2.8-2.5-6-3.8-9.8-3.8c-1.3,0-2.7,0.2-4.3,0.5c-0.5,0-0.5,0-0.5,0s0.3-0.2,0.5-0.2c3.8-1.3,6.5-3,8.5-5.8
	c2-2.5,3-5.7,3-9.3c0-4-1.5-7.5-4.5-10.5s-7-5-12-5.7c0.5,1.5,0.8,3,0.8,4.7v0.3c3,1,5.5,2.2,7.3,4.5c1.8,2.3,2.8,4.5,2.8,7.3
	c0,2-0.8,3.8-2,5.3c-1.3,1.5-3,2.5-5.3,2.5c-0.3,0-0.8,0-1,0c-1.8-0.3-3.2-1-4.5-2.2v10c1,0,2,0,3-0.2H59h0.5c-1,0.2-2,0.2-3,0.2
	v1.8c1-0.5,2-1.3,3.2-1.8c0.3-0.2,0.5-0.2,0.5,0c0,0,0,0.2-0.5,0.5c-1,0.5-2,1-3.2,1.8v2.7c0.5,0.5,1,1,1,1.3v0.2
	c-0.3-0.5-0.8-0.7-0.8-1v4.3c0,0.5,0,0.5-0.3,0.5s-0.3-0.2-0.3-0.5v-4.8c-0.3-0.2-0.8-0.7-1.5-1.5c-0.3,0.2-0.5,0.5-0.7,0.5h-0.3
	c0.3-0.2,0.3-0.5,0.5-0.8c-1-1-2.3-2-4-2.7l-1-0.5c-1.5-0.8-3-1.3-4.5-1.5l-1.5-0.3c-0.3,0-0.8,0-1.5,0c-4.3,0-7.8,1-10.5,3
	c-2.8,2-4,4.8-4,8.5c0,3.8,1.5,6.8,4.3,9c3,2.3,6.5,3.3,10.8,3.3c1.3,0,2.5,0,3.8-0.3c0.5-1.5,1.3-3,2.3-4c1-1,2-1.5,3-1.5
	s1.5,0.5,1.5,1.3c0,1-0.5,1.8-1.5,2.5c-1,0.8-2.5,1.5-4.5,1.8c0,0.8-0.3,1.5-0.3,1.8c0,2,0.5,3.8,1.8,5.2c1.3,1.3,2.8,2,4.5,2
	c1.5,0,3-0.5,4-1.8s1.8-2.5,1.8-4c0-1-0.3-1.8-0.8-2.5s-1-1-1.8-1c-0.5,0-0.8,0-0.8,0.2c0,0.3-0.3,0.5-0.3,1c0,0.5-0.3,0.5-0.5,0.5
	c-0.5,0-0.5-0.3-0.5-0.5c0-0.3,0.3-0.8,0.5-1.3c0.3-0.5,0.8-0.5,1.3-0.5c0.8,0,1.5,0.5,2,1.3c0.5,0.8,0.7,1.8,0.7,2.8
	c0,1.5-0.5,3-1.8,4.3s-2.8,1.8-4.3,1.8c-2,0-3.8-0.7-5-2.3s-2-3.3-2-5.5c0-0.3,0-0.8,0.3-1.5c-1.5,0.3-2.8,0.5-4.3,0.5
	c-4.3,0-8-1.3-11-3.5c-3-2.3-4.8-5.5-4.8-9.3c0-3.5,1.5-6.3,4.5-8.5c3-2.3,6.5-3.2,10.8-3.2c0.5,0,1.3,0,2,0.2l1.3,0.2
	c1.8,0.2,3.3,0.7,4.5,1.5l1.3,0.5c1.5,0.8,2.8,1.8,4,2.7c0.7-0.5,1.3-1,1.5-1.3v-2c-1.3,0-2.8-0.5-4.7-1l0,0
	C50.7,53.3,50.7,53.3,51.2,53.6z M51.2,53.8c-0.3,0.2-0.3,0.7-0.5,1.5l-0.3,0.2c-0.5,1-1,2-1.3,2.5c2.5,1.3,3.5,2.7,3.5,4.8
	c0,1.8-0.5,3-1.5,3.8s-1.5,1.3-2,1.3h-0.3l0.3-0.3c0.8-0.5,1.3-1.5,1.3-2.5c0-1.8-1-3-3.2-4.3c-3,3.3-5.7,5-8.8,5
	c-2,0-3.5-0.5-4.8-1.3c-1.3-1-1.8-2-1.8-3.2c0-1,0.3-1.8,1-2.5c0.8-0.8,1.5-1,2.5-1c0.8,0,1.3,0.2,1.8,0.7c0.5,0.5,0.7,1,0.7,1.5
	c0,0.8-0.3,1.3-0.7,1.8c-0.5,0.5-1,0.7-1.5,0.7c-0.8,0-1.8-0.5-2.5-1.3l-0.3-0.2v0.2c0,1.3,0.5,2.3,1.5,3c1,0.8,2.2,1,4,1
	c1.3,0,2.8-0.5,4.3-1.3c1.5-0.8,3-2,4.3-3.5c-1.5-1-2.5-1.8-3-2.5c-0.5-0.8-0.8-1.5-0.8-2.5c0-0.8,0.3-1.5,0.5-2.3l0.3-0.2
	c0.5-1,1-1.5,1.8-2c0.5-0.5,1-0.7,1-0.7l0.3,0.2l-0.3,0.2c-1,0.7-1.5,1.5-1.5,2.5v0.5c0,1.5,1.3,3,3.8,4.3c0.5-1.3,0.7-2,1-2.7v-0.2
	c0.3-0.8,0.3-1.8,0.3-2.5c0-2.7-0.5-5.5-1.8-8.3c-1.3-2.8-2.8-4.7-4.8-6l-0.5-0.3c-1.5-1-3.3-1.3-5-1.3c-0.5,0-1,0-1.3,0h-0.5
	c-2,0.3-3.8,1-4.7,2.3c-1.3,1.3-1.8,2.5-1.8,4.3c0,1.5,0.5,2.8,1.5,3.8c1,1,2.5,1.5,4,1.5c1.5,0,2.8-0.5,4-1.3l0.3-0.3
	c0.3-0.3,0.5-0.5,1-1l0.3,0.3c0,0.3-0.3,0.5-1,1.2l-0.3,0.2c-1.3,1-2.5,1.3-4.3,1.3c-2,0-3.5-0.7-4.7-2s-1.8-3-1.8-4.8
	c0-1.8,0.8-3.2,2.3-5c1.5-1.8,3.5-2.8,5.8-3.2h0.3c0.7,0,1.3-0.3,1.8-0.3c1.8,0,3.3,0.3,4.8,1l0.5,0.3c3.3,1.5,5.5,3.8,7.3,7.3
	c0.5-1,1.5-2,3-3l0.3-0.3c1-0.7,2.5-1.5,4.5-2.5c2-1,3.3-2,3.8-2.8c0.5-0.7,1-1.5,1-2.5c0.3,0,0.3,0,0.3,0.3c0,0.7-0.3,1.8-1,2.2
	c-0.8,0.8-1,1.3-1,1.3c0,0.5,0.5,1.3,1.8,2c1,1,1.8,1.8,2.3,2.2c0.5,0.5,0.5,1.3,0.5,2c0,1.8-1.5,3.8-4.3,5.5L62,47.1l-3,1.8
	c2,0.2,3.3,2,4.3,5l0.2,0.5c0.2,0.8,0.2,1.5,0.5,3c0.3,1.5,0.5,2.3,0.8,3c0.2,0.8,0.8,1.3,1.5,1.8c0.8,0.5,1.5,0.7,2.3,0.7
	s1.5-0.5,2.3-1.3l0.3-0.2v0.2c0,0.2-0.5,0.8-1.3,1.8s-2,1.8-3.3,2.5c-1.3,0.8-2.7,1.8-4,2.8c0,0,0.3-0.5,0.8-0.8
	c0.5-0.5,1-1,1.7-1.5l-0.5-0.3c-1.5-1-2.5-2-3-3.2c-0.5-1.3-1-2.7-1.3-4.3c-0.3-1.5-0.5-2.5-0.5-2.7v-0.2v-0.2v-0.2
	c-0.5-2.3-1.5-3.2-3-3.5h-0.3c-0.5,0-1.3,0.2-1.8,1l-0.3-0.2c0-0.5,0.7-1,2-2l0.3-0.2c0.7-0.5,1.5-1,2.2-1.3c0.8-0.2,1.8-1,2.3-1.3
	l0.3-0.2c1-1,1.5-2.3,1.5-3.5c0-0.7-0.3-1.3-0.5-1.8c-0.3-0.5-1-1.3-1.8-2c-0.8-0.7-1.8-1.5-2-2.5c-0.3,0-1,0.3-2.3,1l-0.3,0.3
	l-1.5,1l-0.3,0.3c-1.3,0.8-2,1.8-2.8,3c0.8,1.8,1,3.2,1,5c0,2-0.3,4-1,6.3L51.2,53.8z M40.7,70.8h0.5c1.8,0,3.5-0.5,4.8-1.3l0.3-0.2
	l0.3,0.2c0,0.3-0.5,0.5-1.8,1c-1.3,0.5-2.3,0.7-3.5,0.7h-0.5c0,0.3-0.3,0.3-0.5,0.3s-0.3-0.3-0.5-0.5h-0.3c-0.3,0.5-0.3,0.7-0.5,0.7
	s-0.5-0.2-0.5-0.2v-0.5h-0.2c0,0.5-0.3,0.7-0.5,0.7s-0.5,0-0.5-0.2v-0.5h-0.3c0,0.2-0.3,0.2-0.5,0.2s-0.5-0.2-0.5-0.5
	c-1.8-0.8-3.2-1.5-4-2.8c-0.8-1.3-1.2-1.7-1.2-2.2l0.3-0.2l0.3,0.2c1,2.3,2.8,3.8,5,4.8l0.5-0.3c0.3,0,0.5,0.3,0.5,0.5h0.3
	c0.3-0.5,0.3-0.5,0.5-0.5s0.5,0,0.5,0.3v0.5h0.3c0-0.5,0.3-0.5,0.5-0.5s0.5,0,0.5,0.2v0.5H40c0.3-0.2,0.3-0.2,0.5-0.2
	C40.4,70.6,40.7,70.8,40.7,70.8z M47,76.3c3.5-0.7,5.3-2,5.3-3.8c0-0.7-0.5-1-1.5-1c-0.8,0-1.3,0.5-2.3,1.3S47.2,75.1,47,76.3z
	 M57.2,21.1c-1.3-2.2-3-3.5-5.3-3.5c-1.3,0-2.3,0.5-3,1.3c-0.7,0.7-1.3,2-1.3,3.2c2.3-0.7,4.3-1.3,6-1.3
	C55,20.8,56.2,20.8,57.2,21.1z M58.5,25.6c0-1-0.3-2-0.7-3.5c-1.3-0.3-2.5-0.3-4-0.3c-2,0-4,0.3-6,1c0.3,1.5,1,2.5,2.2,2.8
	c0.3-0.5,0.8-1,1.3-1.3c0.5-0.3,0.8-0.5,1.3-0.5c0.8,0,1,0.3,1,0.5c0,0.3-0.3,0.7-1,1c-0.7,0.3-1.3,0.5-2,0.5c0,0.3-0.3,0.7-0.3,1.5
	c1.5-0.5,3.2-1,5-1c1,0,2,0,3.2,0.3V25.6z M50.4,25.8c0.8,0,1.3-0.3,1.8-0.5c0.5-0.3,0.7-0.5,0.7-0.7c0-0.3-0.3-0.3-0.7-0.3
	c-0.3,0-0.5,0-0.7,0.3C51.2,24.8,50.7,25.6,50.4,25.8z M62.2,46.6c1.7-0.3,3.3-1,4.5-2.5s1.8-3,1.8-5c0-2.8-0.8-5.3-2.5-7.3
	s-4-3.5-7-4.3c0,1.3-1,3-2.5,5.7c-1.5,2.7-2.3,4.3-2.3,5.3v0.5c0,1.8,0.5,3.2,1.5,4.5v-5.5c0-0.3,0-0.5,0.3-0.5c0.3,0,0.3,0,0.3,0.3
	v6.3c1.3,1.5,3,2.2,4.8,2.5C61.7,46.6,62,46.6,62.2,46.6z M56,59.6v-2.3c-0.5,0.2-1,0.8-1.3,1L56,59.6z M75.2,66.3L75.2,66.3
	c0.5,0,0.5,0.3,0.5,0.5c0,0.7-0.2,1.3-0.5,1.3c-0.2,0-0.5,0-0.5-0.3c0,0.3-0.3,0.5-0.3,0.8c0.3,0.2,0.3,0.2,0.3,0.5
	c0,0.3-0.3,0.5-0.8,0.5l0,0v0.3c0,0.2-0.2,0.5-0.8,0.5c-1.5,1.5-3.5,2.3-6,2.3c-3,0-5.3-0.8-6.8-2.3c-1.5-1.5-2.2-2.8-2.2-4l0.3-0.5
	l0.3,0.8c0,1.3,0.8,2.5,2.3,3.8s3.7,2,6.5,2c2.5,0,4.5-0.8,5.7-2v-0.3c0-0.2,0.3-0.5,0.5-0.5l0.2-0.2l-0.2-0.3
	c0-0.5,0.2-0.5,0.7-0.5c0-0.3,0-0.3,0-0.5c-0.2,0-0.5-0.3-0.5-0.5c0-0.7,0.3-1.3,0.5-1.3h0.3h0.2v-0.2c-0.2,0-0.5-0.3-0.5-0.5
	s0.3-0.5,0.5-0.8c0-0.3,0-0.3,0-0.3c-0.2,0-0.2-0.2-0.2-0.5c0-0.2,0-0.5,0.2-0.5c-0.5-1.5-1.3-2.7-2.5-3.8s-2.5-1.5-4-1.5l-1.5-0.2
	l1.5-0.2c1.5,0,3,0.5,4.3,1.5c1.3,1,2,2.3,2.5,3.8c0.3,0,0.5,0.2,0.5,0.5c0,0.2,0,0.2-0.2,0.5v0.5c0.2,0,0.5,0.3,0.5,0.8
	c0,0.2-0.2,0.5-0.5,0.5L75.2,66.3z"/>
</svg>
